<?xml version="1.0" standalone="no"?>
<!DOCTYPE svg PUBLIC "-//W3C//DTD SVG 20010904//EN"
  "http://www.w3.org/TR/2001/REC-SVG-20010904/DTD/svg10.dtd">
<svg version="1.0" xmlns="http://www.w3.org/2000/svg"
  width="168.000000pt" height="168.000000pt" viewBox="0 0 168.000000 168.000000"
  preserveAspectRatio="xMidYMid meet">

<g transform="translate(0.000000,168.000000) scale(0.100000,-0.100000)"
fill="#000000" stroke="none">
<path d="M702 1669 c-84 -14 -200 -56 -282 -102 -102 -57 -250 -205 -307 -307
-149 -267 -149 -573 0 -840 57 -102 205 -250 307 -307 269 -151 589 -149 849
6 74 44 181 135 181 155 0 6 -25 36 -55 66 -52 52 -54 55 -37 73 12 13 16 34
15 65 -2 45 -5 50 -116 159 -104 103 -117 113 -151 113 -30 0 -46 -8 -85 -45
-76 -71 -83 -68 -234 83 -150 150 -152 158 -82 233 37 39 45 55 45 85 0 34
-10 47 -114 152 -112 113 -114 115 -161 116 -45 1 -49 -1 -104 -60 -67 -71
-76 -102 -56 -196 45 -214 265 -506 495 -658 157 -104 275 -151 377 -152 43
-1 60 5 89 27 l36 28 45 -46 46 -45 -34 -31 c-56 -52 -172 -120 -255 -150
-353 -129 -738 0 -945 317 -88 134 -124 258 -124 432 0 225 76 411 230 565
154 154 340 230 565 230 174 0 298 -36 432 -124 272 -178 415 -506 353 -811
-30 -150 -30 -142 -9 -138 43 8 77 254 55 397 -16 102 -54 211 -104 301 -57
102 -205 250 -307 307 -171 96 -373 133 -558 102z m-94 -432 c51 -51 95 -102
98 -114 7 -27 -4 -63 -19 -63 -7 0 -68 56 -136 124 -109 109 -123 127 -111
141 26 31 69 9 168 -88z m29 -235 c-10 -11 -17 -35 -17 -58 0 -38 7 -47 143
-182 135 -133 146 -142 182 -142 22 0 46 7 57 17 18 16 24 11 148 -112 l130
-130 -25 -24 c-71 -71 -321 27 -543 213 -185 154 -361 441 -365 592 -1 44 3
58 23 79 l24 26 130 -130 c124 -125 129 -131 113 -149z m593 -388 c104 -101
126 -142 95 -173 -14 -14 -29 -2 -145 114 -116 116 -128 131 -113 143 38 27
63 15 163 -84z"/>
</g>
</svg>
