<?xml version="1.0" standalone="no"?>
<!DOCTYPE svg PUBLIC "-//W3C//DTD SVG 20010904//EN"
  "http://www.w3.org/TR/2001/REC-SVG-20010904/DTD/svg10.dtd">
<svg version="1.0" xmlns="http://www.w3.org/2000/svg"
  width="446.000000pt" height="446.000000pt" viewBox="0 0 446.000000 446.000000"
  preserveAspectRatio="xMidYMid meet">

<g transform="translate(0.000000,446.000000) scale(0.100000,-0.100000)"
fill="#000000" stroke="none">
<path d="M791 3326 c-711 -711 -784 -787 -784 -816 0 -28 25 -57 219 -251 183
-183 225 -219 248 -219 23 0 49 20 125 95 l97 94 33 -57 c19 -31 77 -122 130
-202 53 -80 97 -149 99 -153 2 -4 -28 -41 -67 -82 -57 -60 -73 -85 -87 -131
-49 -171 62 -340 237 -361 47 -6 49 -7 49 -38 0 -123 115 -243 250 -261 l47
-6 6 -55 c13 -122 113 -218 248 -237 45 -7 46 -7 47 -47 4 -88 68 -180 154
-223 41 -21 66 -26 122 -26 88 0 138 22 209 89 l53 51 34 -35 c37 -39 110 -73
173 -81 57 -8 140 16 195 56 33 24 90 102 105 143 1 4 23 -1 47 -12 31 -14 66
-21 116 -21 121 0 207 59 255 176 l22 52 36 -10 c80 -22 203 15 262 79 62 66
93 177 71 256 -9 33 -8 39 6 43 137 42 216 142 216 273 0 94 -27 146 -126 247
l-81 84 63 122 c35 68 90 167 123 221 l60 98 77 -76 c59 -57 84 -75 106 -75
23 0 66 38 246 218 201 200 218 220 218 252 0 33 -46 81 -787 822 -747 747
-790 788 -823 788 -33 0 -52 -16 -253 -218 -181 -182 -217 -223 -217 -246 0
-23 21 -50 102 -133 89 -90 100 -105 88 -117 -8 -8 -105 -84 -214 -169 l-200
-154 -122 81 c-68 45 -151 98 -185 119 l-62 38 151 153 c126 126 152 157 152
181 0 25 -34 64 -218 247 -200 200 -220 218 -252 218 -33 0 -82 -47 -819 -784z
m972 466 l147 -147 -718 -718 -717 -717 -150 150 -150 150 715 715 c393 393
717 715 720 715 3 0 72 -66 153 -148z m1802 -572 l720 -720 -150 -150 -150
-150 -722 722 -723 723 147 147 c81 82 150 148 153 148 3 0 329 -324 725 -720z
m-372 -428 l509 -509 -64 -104 c-36 -57 -91 -155 -123 -217 l-59 -113 -360
358 c-504 501 -500 496 -533 496 -17 0 -148 -63 -327 -157 -326 -172 -358
-186 -421 -186 -36 0 -48 5 -69 30 -44 53 -51 117 -19 174 10 19 933 735 948
735 6 1 239 -228 518 -507z m-1339 305 c61 -38 125 -79 143 -91 l33 -23 -185
-142 c-101 -78 -196 -154 -210 -169 -71 -76 -88 -195 -43 -294 56 -121 125
-164 253 -156 84 6 117 20 514 229 l193 102 528 -530 c471 -473 530 -535 540
-574 22 -82 -32 -165 -117 -176 -27 -3 -51 0 -74 12 -19 10 -194 179 -389 377
-320 323 -358 359 -387 358 -35 0 -73 -38 -73 -73 0 -14 132 -154 404 -427
428 -429 436 -439 422 -515 -14 -73 -89 -124 -164 -110 -32 6 -92 61 -447 416
-437 435 -434 433 -486 391 -15 -13 -22 -30 -22 -51 0 -29 35 -68 360 -394
199 -199 366 -372 372 -384 38 -76 -16 -180 -103 -195 -71 -14 -83 -4 -471
382 -390 387 -390 387 -497 405 -31 5 -38 10 -38 29 0 50 -31 125 -71 170 -50
57 -104 86 -174 93 l-52 6 -6 54 c-14 133 -139 243 -277 243 -76 0 -136 -27
-204 -91 l-63 -58 -80 122 c-44 67 -104 162 -133 210 l-54 88 439 439 439 439
36 -22 c19 -11 84 -52 144 -90z m-447 -1197 c46 -28 66 -72 60 -133 -4 -48 -7
-52 -163 -208 -166 -167 -196 -186 -260 -175 -42 8 -100 64 -109 105 -14 66 0
89 164 254 86 88 165 163 176 167 36 15 99 11 132 -10z m298 -300 c36 -22 65
-73 65 -114 0 -53 -31 -94 -181 -243 -126 -124 -161 -153 -191 -158 -110 -21
-198 86 -157 192 12 31 267 295 314 324 40 25 109 25 150 -1z m309 -310 c47
-41 62 -90 46 -143 -9 -32 -44 -73 -148 -180 -75 -76 -152 -148 -171 -159 -41
-26 -111 -27 -147 -3 -57 37 -81 124 -50 183 16 30 290 304 321 321 11 5 41
11 67 11 39 0 54 -6 82 -30z m253 -271 c70 -26 112 -102 93 -169 -14 -51 -313
-348 -361 -359 -75 -16 -150 28 -169 99 -18 67 -2 93 162 258 178 180 207 197
275 171z m265 -236 c65 -69 81 -124 54 -187 -39 -93 -158 -112 -231 -36 l-28
29 70 75 c39 40 77 90 84 110 7 20 16 36 19 36 4 0 18 -12 32 -27z"/>
</g>
</svg>
