<?xml version="1.0" standalone="no"?>
<!DOCTYPE svg PUBLIC "-//W3C//DTD SVG 20010904//EN"
  "http://www.w3.org/TR/2001/REC-SVG-20010904/DTD/svg10.dtd">
<svg version="1.0" xmlns="http://www.w3.org/2000/svg"
  width="140.000000pt" height="140.000000pt" viewBox="0 0 140.000000 140.000000"
  preserveAspectRatio="xMidYMid meet">

<g transform="translate(0.000000,140.000000) scale(0.100000,-0.100000)"
fill="#000000" stroke="none">
<path d="M522 1381 c-142 -39 -242 -99 -340 -206 -116 -127 -182 -297 -182
-469 0 -125 21 -214 76 -326 39 -80 61 -109 133 -180 94 -93 175 -143 295
-179 101 -31 287 -30 390 3 118 37 201 89 296 185 132 132 196 276 207 461 17
307 -180 593 -484 702 -87 31 -292 35 -391 9z m263 -186 c151 -39 255 -170
257 -321 1 -139 -75 -298 -271 -566 -31 -43 -61 -77 -66 -78 -25 0 -227 297
-280 413 -73 158 -81 253 -32 359 46 102 131 169 247 194 74 16 77 16 145 -1z"/>
<path d="M607 1029 c-20 -11 -49 -38 -65 -61 -22 -34 -27 -53 -27 -104 0 -53
5 -69 30 -106 97 -139 301 -104 344 58 23 86 -22 180 -106 223 -35 18 -133 13
-176 -10z"/>
</g>
</svg>
