<?xml version="1.0" standalone="no"?>
<!DOCTYPE svg PUBLIC "-//W3C//DTD SVG 20010904//EN"
  "http://www.w3.org/TR/2001/REC-SVG-20010904/DTD/svg10.dtd">
<svg version="1.0" xmlns="http://www.w3.org/2000/svg"
  width="140.000000pt" height="140.000000pt" viewBox="0 0 140.000000 140.000000"
  preserveAspectRatio="xMidYMid meet">

<g transform="translate(0.000000,140.000000) scale(0.100000,-0.100000)"
fill="#000000" stroke="none">
<path d="M559 1386 c-148 -31 -269 -98 -368 -202 -123 -128 -180 -263 -188
-439 -6 -142 12 -230 73 -354 38 -77 62 -109 128 -175 90 -90 160 -136 265
-172 260 -91 533 -25 733 176 135 137 195 302 186 513 -6 131 -33 219 -104
333 -51 83 -167 197 -245 241 -138 79 -329 110 -480 79z m571 -418 c0 -15 -54
-50 -165 -107 -44 -23 -116 -61 -160 -86 -44 -25 -93 -45 -108 -45 -16 0 -75
26 -135 59 -59 32 -141 75 -182 96 -103 51 -136 75 -118 86 7 5 205 9 441 9
335 0 427 -3 427 -12z m-737 -125 c295 -159 289 -157 333 -143 36 12 186 93
356 191 36 22 69 39 72 39 3 0 6 -109 6 -243 0 -203 -3 -246 -16 -265 l-15
-22 -439 0 c-385 0 -440 2 -454 16 -14 13 -16 51 -16 265 0 137 2 249 5 249 3
0 79 -39 168 -87z"/>
</g>
</svg>
