<?xml version="1.0" standalone="no"?>
<!DOCTYPE svg PUBLIC "-//W3C//DTD SVG 20010904//EN"
  "http://www.w3.org/TR/2001/REC-SVG-20010904/DTD/svg10.dtd">
<svg version="1.0" xmlns="http://www.w3.org/2000/svg"
  width="140.000000pt" height="140.000000pt" viewBox="0 0 140.000000 140.000000"
  preserveAspectRatio="xMidYMid meet">

<g transform="translate(0.000000,140.000000) scale(0.100000,-0.100000)"
fill="#000000" stroke="none">
<path d="M560 1385 c-256 -55 -449 -227 -526 -470 -115 -361 80 -747 441 -871
72 -25 94 -28 220 -29 121 0 149 3 210 24 233 78 393 244 466 481 33 106 33
264 0 370 -39 129 -86 206 -180 300 -175 174 -400 244 -631 195z m-41 -301
c92 -96 96 -112 55 -182 l-26 -44 -26 39 c-29 44 -151 186 -163 191 -28 11 1
-40 69 -120 116 -139 107 -123 83 -154 -12 -15 -21 -36 -21 -47 0 -87 199
-277 290 -277 13 0 34 10 46 21 26 25 10 33 148 -78 43 -35 88 -66 102 -69 37
-10 29 -23 -33 -52 -81 -37 -187 -42 -282 -13 -176 53 -377 252 -457 450 -25
62 -33 157 -19 216 20 79 105 205 138 205 8 0 51 -39 96 -86z m518 -502 c32
-27 77 -70 101 -96 46 -50 46 -60 0 -104 l-25 -22 -122 97 -121 97 37 38 c20
21 45 38 55 38 9 0 43 -22 75 -48z"/>
</g>
</svg>
