<?xml version="1.0" standalone="no"?>
<!DOCTYPE svg PUBLIC "-//W3C//DTD SVG 20010904//EN"
  "http://www.w3.org/TR/2001/REC-SVG-20010904/DTD/svg10.dtd">
<svg version="1.0" xmlns="http://www.w3.org/2000/svg"
  width="512.000000pt" height="512.000000pt" viewBox="0 0 512.000000 512.000000"
  preserveAspectRatio="xMidYMid meet">

<g transform="translate(0.000000,512.000000) scale(0.100000,-0.100000)"
fill="#000000" stroke="none">
<path d="M2812 5087 c-46 -49 -36 -67 143 -247 91 -91 165 -169 165 -173 0 -4
-564 -7 -1253 -7 l-1254 0 -19 -21 c-18 -20 -19 -45 -19 -644 0 -599 1 -624
19 -644 29 -32 88 -29 115 5 21 26 21 35 21 590 l0 564 1197 0 1197 0 -167
-169 c-146 -147 -167 -172 -167 -200 0 -40 39 -81 77 -81 23 0 71 43 275 248
229 228 248 250 248 282 0 32 -19 54 -243 277 -225 225 -246 243 -278 243 -24
0 -43 -7 -57 -23z"/>
<path d="M4161 5090 c-40 -9 -116 -39 -169 -65 -79 -39 -111 -63 -183 -134
-97 -97 -153 -187 -196 -316 -23 -70 -26 -97 -27 -215 -1 -96 4 -160 17 -220
53 -245 199 -606 401 -989 133 -251 277 -499 300 -513 26 -17 72 -8 98 20 83
89 432 762 563 1089 140 346 181 607 127 798 -80 278 -297 484 -582 550 -89
20 -256 18 -349 -5z m379 -164 c95 -33 154 -69 228 -140 105 -100 162 -214
183 -363 22 -161 -41 -406 -200 -775 -97 -226 -383 -776 -405 -779 -12 -1
-124 198 -251 446 -314 618 -412 978 -331 1219 34 101 66 155 138 232 90 96
208 162 331 184 84 15 228 4 307 -24z"/>
<path d="M4267 4780 c-75 -13 -156 -58 -220 -121 -99 -99 -141 -228 -119 -362
60 -348 477 -478 722 -226 155 160 158 412 9 574 -47 51 -117 98 -175 119 -55
19 -158 27 -217 16z m188 -174 c56 -26 119 -90 142 -145 9 -20 15 -64 15 -99
1 -121 -78 -223 -199 -258 -167 -49 -333 78 -334 255 -1 196 201 329 376 247z"/>
<path d="M1495 3544 c-170 -91 -566 -301 -880 -466 -314 -165 -579 -308 -590
-319 -20 -19 -20 -35 -23 -809 l-2 -788 22 -25 c13 -14 417 -273 899 -576 606
-381 885 -551 904 -551 31 0 1756 911 1793 947 l22 22 0 859 c0 804 -1 861
-17 880 -10 12 -400 230 -868 485 -887 484 -929 507 -942 507 -4 0 -147 -75
-318 -166z m1075 -416 c404 -221 756 -413 782 -428 l48 -26 -215 -117 c-118
-64 -220 -117 -226 -117 -14 0 -1578 853 -1579 861 0 12 426 238 440 233 8 -3
346 -186 750 -406z m-515 -373 l824 -450 1 -246 0 -246 -132 -71 -133 -71 -5
244 c-5 228 -6 246 -25 264 -11 10 -386 215 -833 454 l-814 435 44 25 c136 78
215 117 230 115 10 -2 389 -205 843 -453z m-483 -207 c439 -237 797 -432 795
-433 -16 -13 -547 -295 -554 -295 -8 0 -1558 873 -1570 884 -3 3 512 275 521
276 5 0 369 -194 808 -432z m-603 -433 l761 -430 0 -728 0 -728 -52 34 c-29
18 -383 240 -785 492 l-733 460 0 678 0 678 24 -13 c12 -7 366 -206 785 -443z
m2521 -309 c0 -575 -3 -736 -12 -744 -7 -6 -339 -184 -738 -397 -399 -213
-753 -402 -787 -421 l-63 -35 0 733 0 733 278 153 c153 83 282 152 285 152 4
0 7 -107 7 -238 0 -226 1 -239 20 -260 13 -13 33 -22 51 -22 34 0 424 207 474
252 l30 26 3 284 3 283 212 117 c117 65 218 118 225 118 9 0 12 -153 12 -734z"/>
<path d="M390 1950 c-31 -31 -36 -68 -13 -98 30 -40 1039 -625 1080 -625 55
-1 91 48 72 100 -12 35 44 0 -559 350 -333 193 -514 293 -532 293 -15 0 -37
-9 -48 -20z"/>
<path d="M384 1567 c-32 -28 -36 -80 -7 -108 10 -9 249 -151 531 -315 369
-213 523 -297 545 -297 20 0 38 8 54 27 29 34 29 58 1 90 -19 20 -912 551
-1025 610 -43 22 -67 20 -99 -7z"/>
<path d="M4555 2410 c-11 -4 -127 -116 -257 -247 -206 -206 -238 -243 -238
-269 0 -31 32 -70 60 -74 42 -6 66 12 222 167 l168 167 0 -927 0 -927 -669 0
c-447 0 -678 -4 -699 -11 -60 -21 -67 -108 -12 -136 19 -10 188 -13 751 -13
720 0 727 0 753 21 l26 20 0 987 0 987 163 -162 c89 -89 173 -166 187 -171 49
-18 99 18 100 73 0 25 -34 63 -242 272 -152 151 -252 244 -268 247 -14 3 -34
1 -45 -4z"/>
</g>
</svg>
