<?xml version="1.0" standalone="no"?>
<!DOCTYPE svg PUBLIC "-//W3C//DTD SVG 20010904//EN"
  "http://www.w3.org/TR/2001/REC-SVG-20010904/DTD/svg10.dtd">
<svg version="1.0" xmlns="http://www.w3.org/2000/svg"
  width="140.000000pt" height="140.000000pt" viewBox="0 0 140.000000 140.000000"
  preserveAspectRatio="xMidYMid meet">

<g transform="translate(0.000000,140.000000) scale(0.100000,-0.100000)"
fill="#000000" stroke="none">
<path d="M565 1393 c-53 -11 -171 -57 -218 -85 -160 -94 -282 -262 -323 -445
-25 -112 -16 -283 20 -388 71 -208 236 -374 440 -442 72 -24 96 -27 221 -27
127 -1 147 2 213 26 359 130 551 504 446 868 -33 114 -92 209 -188 305 -145
144 -272 196 -477 194 -63 -1 -123 -3 -134 -6z m308 -221 c128 -46 247 -163
298 -291 27 -70 37 -210 19 -290 -55 -252 -310 -430 -560 -392 -245 37 -430
253 -430 501 1 218 144 411 359 482 76 25 232 20 314 -10z"/>
<path d="M590 1106 c-182 -51 -311 -219 -310 -404 1 -214 144 -383 357 -423
214 -40 433 121 475 350 29 153 -48 334 -179 420 -96 64 -235 87 -343 57z
m134 -142 c13 -12 16 -41 16 -148 l0 -133 41 -33 c133 -106 190 -176 159 -195
-16 -10 -49 13 -162 113 l-108 95 0 133 c0 168 13 209 54 168z"/>
</g>
</svg>
